<?xml version="1.0" encoding="utf-8" ?><svg xmlns="http://www.w3.org/2000/svg" xmlns:xlink="http://www.w3.org/1999/xlink" width="256" height="256" viewBox="0 0 256 256"><defs><linearGradient id="gradient_0" gradientUnits="userSpaceOnUse" x1="127.51514" y1="93.925026" x2="126.31664" y2="172.23955"><stop offset="0" stop-color="#64C547"/><stop offset="1" stop-color="#1D9950"/></linearGradient></defs><path fill="url(#gradient_0)" d="M104.059 95.1879C105.782 93.101 107.539 91.1856 109.713 89.5568C116.001 84.9132 123.869 82.9413 131.603 84.0705C136.118 84.7482 145.005 88.3431 147.551 91.7831C152.852 96.7038 156.649 104.798 157.013 112.016C157.817 127.949 146.238 146.334 137.651 159.189C134.825 163.419 131.044 169.271 127.643 172.951C127.508 173.099 127.37 173.244 127.228 173.386C123.968 169.943 120.647 165.164 117.948 161.132C110.062 149.335 102.361 137.072 98.4896 123.289C97.7371 120.61 97.4407 116.061 97.4589 113.299C97.4939 107.998 99.9509 98.8335 104.059 95.1879ZM135.211 98.3861C128.489 94.7765 120.18 96.1471 114.974 101.724C110.064 106.983 109.047 114.784 112.443 121.127C115.839 127.469 122.896 130.946 129.994 129.775C137.093 128.605 142.659 123.045 143.838 115.948C145.018 108.851 141.549 101.79 135.211 98.3861Z"/><path fill="#4CB24C" d="M104.059 95.1879C105.782 93.101 107.539 91.1856 109.713 89.5568C116.001 84.9132 123.869 82.9413 131.603 84.0705C136.118 84.7482 145.005 88.3431 147.551 91.7831C147.72 93.7557 149.348 93.6934 148.133 95.2607C146.04 97.9585 142.743 97.149 140.404 98.9126C138.404 98.128 137.418 97.6761 135.211 98.3861C128.489 94.7765 120.18 96.1471 114.974 101.724C113.491 101.033 111.089 101.404 109.23 100.332C108 99.6214 105.536 99.3457 104.435 98.1549C104.543 96.8146 105.118 97.2746 105.465 96.0276C104.47 95.7059 104.73 95.9268 104.059 95.1879Z"/><path fill="#4CB24C" d="M74.2129 116.4C74.9234 116.68 75.9281 117.677 76.4557 118.268C84.0765 126.801 91.6769 135.352 99.1721 143.996C100.887 145.974 102.726 147.766 104.248 149.91C100.383 148.061 87.7606 136.677 83.7386 133.655C82.1887 132.491 76.3212 127.805 74.6828 126.387L36.114 151.149C29.0591 155.274 22.219 160.198 15.1288 164.327C11.8428 166.241 8.96502 168.543 5.49032 170.256C7.67029 167.883 10.3638 165.688 12.7076 163.422C22.1203 154.32 30.9821 144.648 40.8542 136.036C43.0845 134.09 47.4373 129.167 49.9569 128.127C51.2506 128.339 53.4903 131.101 54.4825 132.196C60.488 128.271 68.2793 120.247 74.2129 116.4Z"/><defs><linearGradient id="gradient_1" gradientUnits="userSpaceOnUse" x1="205.56906" y1="113.38076" x2="197.60223" y2="156.34116"><stop offset="0" stop-color="#42B647"/><stop offset="1" stop-color="#279C57"/></linearGradient></defs><path fill="url(#gradient_1)" d="M178.665 107.89C178.833 107.907 178.998 107.928 179.163 107.969C181.555 108.555 193.33 120.162 196.101 122.325C197.689 123.565 199.979 123.67 201.459 124.936C203.833 126.966 205.98 129.449 208.209 131.649L222.158 145.3L236.791 159.343C239.028 161.476 245.342 167.321 246.749 169.534C245.844 169.412 222.944 151.998 220.35 150.027C216.842 147.063 212.376 144.227 208.814 141.32C203.174 136.718 197.352 132.418 191.648 127.932C188.479 125.44 183.48 121.84 180.671 119.129C173.857 125.812 165.776 131.751 158.687 138.179C157.694 139.08 155.284 141.597 154.161 141.723L154.134 141.416L169.783 119.772C172.606 115.81 175.1 110.98 178.665 107.89Z"/></svg>